<svg xmlns="http://www.w3.org/2000/svg" viewBox="0 0 2176.5 585.34"><defs><style>.cls-1{fill:#0c4a6e;}.cls-2{fill:#fdb714;}</style></defs><title>Logo Populix</title><g id="Layer_2" data-name="Layer 2"><g id="Layer_1-2" data-name="Layer 1"><path class="cls-1" d="M2170.23,418.9a28.12,28.12,0,0,1,6.1,21.08A26.9,26.9,0,0,1,2166,458.89a27.89,27.89,0,0,1-18,6.43,27.3,27.3,0,0,1-22.28-10.7l-93.06-116-93.1,116a27.24,27.24,0,0,1-22.31,10.7A29.23,29.23,0,0,1,1888.81,440a28.08,28.08,0,0,1,6.09-21.08l101-125.74-101-125.76a27.53,27.53,0,0,1-6.09-20.75,26.83,26.83,0,0,1,10.67-19.23,25.92,25.92,0,0,1,20.8-6.11,27.31,27.31,0,0,1,19.21,10.38l93.1,116,93.06-116a27.47,27.47,0,0,1,19.27-10.38,26.77,26.77,0,0,1,21,6.11,27.14,27.14,0,0,1,10.36,19.23,27.58,27.58,0,0,1-6.1,20.75l-101,125.76Z"/><path class="cls-2" d="M612.75,333.81A37.71,37.71,0,1,1,575,296.08a37.65,37.65,0,0,1,37.72,37.73"/><path class="cls-1" d="M612.52,182.69A37.7,37.7,0,1,1,574.85,145a37.62,37.62,0,0,1,37.67,37.74"/><path class="cls-1" d="M733.49,259.49a37.7,37.7,0,1,1-37.67-37.67,37.77,37.77,0,0,1,37.67,37.67"/><path class="cls-1" d="M733.49,409.84a37.7,37.7,0,1,1-37.67-37.73,37.66,37.66,0,0,1,37.67,37.73"/><path class="cls-1" d="M492,259.49a37.71,37.71,0,1,1-37.65-37.67A37.75,37.75,0,0,1,492,259.49"/><path class="cls-1" d="M492,409.84a37.71,37.71,0,1,1-37.65-37.73A37.64,37.64,0,0,1,492,409.84"/><path class="cls-1" d="M611.81,484.93a37.7,37.7,0,1,1-37.66-37.67,37.62,37.62,0,0,1,37.66,37.67"/><path class="cls-1" d="M171.79,117.93q70.92,0,121.37,51.4,50.1,51,50.15,123.47,0,72.12-50.15,123.23-50.46,51-121.37,51-64.93,0-113.85-43.95v133.4A28,28,0,0,1,49.55,577a28.47,28.47,0,0,1-20.43,8.38A28.72,28.72,0,0,1,8.42,577,27.68,27.68,0,0,1,0,556.52V147a27.58,27.58,0,0,1,8.42-20.41,28.15,28.15,0,0,1,20.7-8.7,27.91,27.91,0,0,1,20.43,8.7A27.86,27.86,0,0,1,57.94,147V161.9q48.82-44,113.85-44m0,291.22q47.09,0,80.5-34c22.09-22.9,33.12-50.43,33.12-82.38q0-48.33-33.12-82.6-33.47-34.06-80.5-34.06T91.34,210.2q-33.49,34.35-33.4,82.6c0,31.95,11.07,59.48,33.4,82.38q33.42,34,80.45,34"/><path class="cls-1" d="M1015.73,117.93q70.9,0,121.41,51.4,50.11,51,50.07,123.47,0,72.12-50.07,123.23-50.55,51-121.41,51-65,0-113.85-43.95v133.4A27.8,27.8,0,0,1,893.5,577a29.47,29.47,0,0,1-41.17,0,27.77,27.77,0,0,1-8.39-20.44V147a27.67,27.67,0,0,1,8.39-20.41,28.7,28.7,0,0,1,41.17,0A27.7,27.7,0,0,1,901.88,147V161.9q48.86-44,113.85-44m0,291.22q47.08,0,80.48-34c22.11-22.9,33.17-50.43,33.17-82.38q0-48.33-33.17-82.6-33.43-34.06-80.48-34.06T935.28,210.2q-33.42,34.35-33.4,82.6c0,31.95,11.12,59.48,33.4,82.38q33.47,34,80.45,34"/><path class="cls-1" d="M1519,118.22a27.75,27.75,0,0,1,20.46,8.41,28.63,28.63,0,0,1,8.32,20.71V438.57a28.3,28.3,0,0,1-8.32,20.43A29.07,29.07,0,0,1,1490,438.57v-9.25q-41.84,38-95.33,38-63.48,0-108.38-51-44.93-51.37-44.91-123.49V146.41a27.84,27.84,0,0,1,8.41-20.42,28.37,28.37,0,0,1,20.71-8.7,28,28,0,0,1,20.43,8.7,27.48,27.48,0,0,1,8.39,20.42V292.79q0,48.3,27.86,82.37,28.11,34.33,67.49,34.33,39.6,0,67.44-34.33C1480.62,352.45,1490,325,1490,292.79V147.34a28.16,28.16,0,0,1,8.63-20.71,27.62,27.62,0,0,1,20.42-8.41"/><path class="cls-1" d="M1651.21,0a28,28,0,0,1,20.43,8.66A27.83,27.83,0,0,1,1680,29.1V438.57a27.69,27.69,0,0,1-8.32,20.42,28.39,28.39,0,0,1-20.43,8.34,28.74,28.74,0,0,1-20.76-8.34,27.8,27.8,0,0,1-8.32-20.42V29.1a28,28,0,0,1,8.32-20.44A28.37,28.37,0,0,1,1651.21,0"/><path class="cls-1" d="M1788.36.63a37.77,37.77,0,0,1,18.13,4.8,35,35,0,0,1,13.9,13.77,37.59,37.59,0,0,1,5.11,18.55,37.81,37.81,0,0,1-5,18.48A35.9,35.9,0,0,1,1806.72,70a36.87,36.87,0,0,1-36.8,0,36.22,36.22,0,0,1-13.81-13.76,37.69,37.69,0,0,1-4.95-18.48,38.46,38.46,0,0,1,4.95-18.55,33.54,33.54,0,0,1,14-13.77,37.93,37.93,0,0,1,18.25-4.8m0,117.59a29.58,29.58,0,0,1,29.06,29.12V438.57A27.42,27.42,0,0,1,1808.8,459a29.26,29.26,0,0,1-40.87,0,27.29,27.29,0,0,1-8.68-20.43V147.34a29.69,29.69,0,0,1,29.11-29.12"/></g></g></svg>